<svg width="32" height="32" viewBox="0 0 32 32" fill="none" xmlns="http://www.w3.org/2000/svg">
<path d="M11.8479 9.5598C12.0919 9.56634 12.3623 9.57953 12.6196 10.1507C12.7903 10.5309 13.0777 11.2309 13.3119 11.8012C13.4941 12.2449 13.644 12.61 13.6815 12.6847C13.7673 12.8554 13.82 13.0523 13.7079 13.2821C13.6947 13.3092 13.6822 13.3351 13.6702 13.36C13.5802 13.5467 13.5162 13.6795 13.365 13.8532C13.3028 13.9246 13.238 14.0029 13.1734 14.0809C13.0599 14.2181 12.9471 14.3544 12.8505 14.4507C12.679 14.6212 12.5008 14.8052 12.6987 15.1465C12.8967 15.4879 13.5892 16.6105 14.6116 17.5165C15.7107 18.495 16.6664 18.9073 17.1495 19.1158C17.2433 19.1563 17.3193 19.189 17.3751 19.2168C17.7181 19.3875 17.9226 19.3612 18.1204 19.1315C18.3184 18.9016 18.9779 18.1335 19.2088 17.7922C19.433 17.4509 19.6638 17.5034 19.9805 17.6215C20.2971 17.7397 21.9856 18.5668 22.3285 18.7375C22.3963 18.7712 22.4597 18.8016 22.5185 18.8298C22.7571 18.9443 22.9193 19.022 22.9881 19.138C23.0738 19.2824 23.0738 19.9652 22.7902 20.7661C22.5001 21.567 21.1017 22.3351 20.4685 22.3942C20.4086 22.3998 20.3489 22.407 20.2875 22.4145C19.7072 22.4846 18.9706 22.5738 16.3462 21.5407C13.1123 20.269 10.9776 17.1139 10.546 16.476C10.512 16.4256 10.4885 16.3909 10.476 16.3741L10.4687 16.3643C10.2723 16.1016 9.07105 14.4942 9.07105 12.8358C9.07105 11.2491 9.85267 10.423 10.2092 10.0462C10.2318 10.0223 10.2527 10.0003 10.2715 9.97992C10.5881 9.63859 10.9575 9.55326 11.1883 9.55326C11.4193 9.55326 11.6501 9.55326 11.8479 9.5598Z" fill="#898686"/>
<path fill-rule="evenodd" clip-rule="evenodd" d="M2.91224 28.4419C2.80315 28.8379 3.1638 29.2034 3.5612 29.0996L9.70432 27.495C11.6435 28.5454 13.8267 29.1034 16.0495 29.1034H16.0561C23.3707 29.1034 29.3334 23.1753 29.3334 15.8883C29.3334 12.3565 27.9547 9.03458 25.4484 6.53988C22.9421 4.04528 19.6111 2.66666 16.056 2.66666C8.74143 2.66666 2.77881 8.59473 2.77881 15.8818C2.77798 18.2 3.38987 20.4776 4.55305 22.486L2.91224 28.4419ZM6.48122 23.0172C6.62365 22.5002 6.5525 21.9477 6.28374 21.4836C5.29687 19.7797 4.7781 17.8473 4.77881 15.8818C4.77881 9.70878 9.8365 4.66666 16.056 4.66666C19.0825 4.66666 21.9061 5.83598 24.0375 7.9574C26.1664 10.0765 27.3334 12.8881 27.3334 15.8883C27.3334 22.0612 22.2757 27.1034 16.0561 27.1034H16.0495C14.1608 27.1034 12.3048 26.6291 10.6569 25.7364C10.2109 25.4948 9.68968 25.4317 9.19888 25.5599L5.51568 26.522L6.48122 23.0172Z" fill="#898686"/>
</svg>
